<?xml version="1.0" encoding="UTF-8" standalone="no"?>
<!-- Created with Inkscape (http://www.inkscape.org/) -->

<svg
   version="1.1"
   id="svg1"
   width="145.76666"
   height="127.36118"
   viewBox="0 0 145.76666 127.36118"
   xmlns:xlink="http://www.w3.org/1999/xlink"
   xmlns="http://www.w3.org/2000/svg"
   xmlns:svg="http://www.w3.org/2000/svg">
  <defs
     id="defs1">
    <linearGradient
       id="linearGradient">
      <stop
         style="stop-color:#39817d;stop-opacity:1;"
         offset="0.51282048"
         id="stop2" />
      <stop
         style="stop-color:#cec948;stop-opacity:1;"
         offset="1"
         id="stop3" />
    </linearGradient>
    <linearGradient
       xlink:href="#linearGradient"
       id="linearGradient2"
       x1="23.797037"
       y1="14.463699"
       x2="126.86964"
       y2="117.5363"
       gradientUnits="userSpaceOnUse" />
  </defs>
  <g
     id="g1"
     transform="translate(-2.4500029,-2.3194116)">
    <path
       d="M 6.8970364,129.22573 C 2.2550043,127.28643 1.2535735,123.79494 3.8626225,118.64623 7.793471,110.88908 21.804623,90.494052 31.141253,78.9387 39.123381,69.059728 52.825401,54.133137 63.310144,43.894825 80.242512,27.360431 94.300539,17.189778 113.18822,7.8092083 c 12.4888,-6.202562 13.78577,-6.52025 16.52845,-4.048577 1.72369,1.553364 1.53789,5.614124 -0.33333,7.2852417 -0.825,0.736776 -6.45,3.755492 -12.5,6.708257 -15.59284,7.610243 -29.403746,17.532704 -44.666676,32.090811 l -7,6.676749 15.333334,-0.298318 c 8.433334,-0.164075 21.017132,-0.64852 27.963992,-1.076544 19.94327,-1.228784 30.13956,0.662459 36.4705,6.764674 2.65935,2.563275 3.23218,3.530071 3.23218,5.455096 0,4.831054 -5.71125,7.057713 -9.00017,3.508915 l -1.60317,-1.729854 0.36998,2.279931 c 0.44838,2.763048 -1.7937,5.807627 -4.48378,6.088641 -0.94444,0.09866 -2.75212,0.968782 -4.01707,1.933609 -1.26495,0.964827 -4.36926,2.722596 -6.89847,3.906153 C 108.6702,89.86504 93.964415,83.878186 89.021583,69.690442 l -1.138251,-3.2672 -10.679429,0.394471 c -10.76157,0.397505 -18.964486,1.313884 -22.653906,2.530757 -3.717676,1.226191 -19.743432,21.016466 -32.599203,40.2569 -5.951205,8.9068 -7.048896,10.94165 -6.653158,12.33334 0.767359,2.69856 0.469228,4.74609 -0.88879,6.10411 -1.540895,1.54089 -5.2549365,2.12575 -7.5118096,1.18291 z M 118.78764,73.528196 c 1.92468,-0.95911 3.99575,-2.501322 4.60237,-3.427138 0.60661,-0.925816 1.99031,-2.222942 3.07487,-2.882504 l 1.97193,-1.199202 -1.87674,-0.47103 c -4.02118,-1.009252 -25.4122,0.570284 -26.82252,1.980604 -0.606794,0.606794 3.12607,5.083768 5.38967,6.464041 3.18806,1.943985 9.23987,1.738083 13.66042,-0.464771 z"
       id="path1" />
  </g>
</svg>
